<svg xmlns="http://www.w3.org/2000/svg" width="773.165" height="856.075" viewBox="53.571 85.81 773.165 856.075"><defs><radialGradient id="b" r="100%" cx="8%" cy="41%"><stop offset="0%" stop-color="#0093E9"/><stop offset="100%" stop-color="#80D0C7"/></radialGradient><clipPath id="a"><path fill="currentColor" d="M825.5 622.5Q837 745 741.5 848T503 941q-143-10-240.5-103.5T87 622Q9 500 113 397.5t171-230q67-127.5 193-56T706 229q103 46 105.5 158.5t14 235Z"/></clipPath></defs><g clip-path="url(#a)"><path fill="url(#b)" d="M825.5 622.5Q837 745 741.5 848T503 941q-143-10-240.5-103.5T87 622Q9 500 113 397.5t171-230q67-127.5 193-56T706 229q103 46 105.5 158.5t14 235Z"/></g></svg>